<svg xmlns="http://www.w3.org/2000/svg" width="700" height="307" class="highcharts-root" font-family="&quot;Lucida Grande&quot;, &quot;Lucida Sans Unicode&quot;, Arial, Helvetica, sans-serif" font-size="12"><desc>Created with Highstock 6.1.0</desc><defs><clipPath><path fill="none" d="M0 0h86v670H0z"/></clipPath><clipPath id="a"><path fill="none" d="M0 0h86v670H0z"/></clipPath></defs><rect width="700" height="307" fill="#fff" class="highcharts-background" rx="0" ry="0"/><path fill="none" d="M20 129h670v86H20z" class="highcharts-plot-background"/><g fill="none" class="highcharts-grid highcharts-xaxis-grid"><path d="M20 215.5h670M20 129.5h670" class="highcharts-grid-line"/></g><g fill="none" stroke="#e6e6e6" class="highcharts-grid highcharts-yaxis-grid"><path d="M19.5 129v86M103.5 129v86M187.5 129v86M270.5 129v86M354.5 129v86M438.5 129v86M522.5 129v86M605.5 129v86M690.5 129v86" class="highcharts-grid-line"/></g><path fill="none" d="M20 129h670v86H20z" class="highcharts-plot-border"/><g fill="none" stroke="#ccd6eb" class="highcharts-axis highcharts-xaxis"><path d="M20 215.5H10M20 128.5H10" class="highcharts-tick"/><path d="M19.5 129v86" class="highcharts-axis-line"/></g><g class="highcharts-axis highcharts-yaxis"><text x="345" y="253" fill="#666" text-anchor="middle" class="highcharts-axis-title" color="#666"><tspan>Frames per Second (Higher is Better)</tspan></text><path fill="none" d="M20 215h670" class="highcharts-axis-line"/></g><g class="highcharts-series-group"><g class="highcharts-series highcharts-series-0 highcharts-column-series highcharts-color-0" clip-path="url(#a)" transform="matrix(0 -1 -1 0 690 215)"><path fill="#D14648" stroke="#fff" d="M52.5 47.5h14v623h-14z" class="highcharts-point highcharts-color-0"/></g><g class="highcharts-series highcharts-series-1 highcharts-column-series highcharts-color-1" clip-path="url(#a)" transform="matrix(0 -1 -1 0 690 215)"><path fill="#323232" stroke="#fff" d="M35.5 318.5h14v352h-14z" class="highcharts-point highcharts-color-1"/></g><g class="highcharts-series highcharts-series-2 highcharts-column-series highcharts-color-2" clip-path="url(#a)" transform="matrix(0 -1 -1 0 690 215)"><path fill="#bdbdbd" stroke="#fff" d="M18.5 497.5h14v173h-14z" class="highcharts-point highcharts-color-2"/></g></g><text x="350" y="61" fill="#333" text-anchor="middle" class="highcharts-title" color="#333" font-size="25" font-family="&quot;Lucida Grande&quot;, &quot;Lucida Sans Unicode&quot;, Verdana, Arial, Helvetica, sans-serif" font-weight="bold"><tspan>Northgard</tspan></text><text x="350" y="87" fill="#666" text-anchor="middle" class="highcharts-subtitle" color="#666" font-family="&quot;Lucida Grande&quot;, &quot;Lucida Sans Unicode&quot;, Verdana, Arial, Helvetica, sans-serif" font-size="16"><tspan>1280x800, Medium settings</tspan></text><text x="5" y="16" font-size="11" font-weight="bold" color="#000" transform="translate(20 129) translate(623 15)" class="highcharts-label highcharts-data-label highcharts-data-label-color-0"><tspan x="5" y="16" fill="#fff" stroke="#fff" stroke-width="2" class="highcharts-text-outline" stroke-linejoin="round">74.4</tspan><tspan x="5" y="16">74.4</tspan></text><text x="5" y="16" font-size="11" font-weight="bold" color="#000" transform="translate(20 129) translate(352 32)" class="highcharts-label highcharts-data-label highcharts-data-label-color-1"><tspan x="5" y="16" fill="#fff" stroke="#fff" stroke-width="2" class="highcharts-text-outline" stroke-linejoin="round">42</tspan><tspan x="5" y="16">42</tspan></text><text x="5" y="16" font-size="11" font-weight="bold" color="#000" transform="translate(20 129) translate(173 49)" class="highcharts-label highcharts-data-label highcharts-data-label-color-2"><tspan x="5" y="16" fill="#fff" stroke="#fff" stroke-width="2" class="highcharts-text-outline" stroke-linejoin="round">20.6</tspan><tspan x="5" y="16">20.6</tspan></text><g class="highcharts-legend" transform="translate(197 267)"><rect width="305" height="25" fill="none" class="highcharts-legend-box" rx="0" ry="0"/><g class="highcharts-legend-item highcharts-column-series highcharts-color-0 highcharts-series-0" transform="translate(8 3)"><text x="21" y="15" fill="#333" color="#333" font-size="12" font-weight="bold" cursor="pointer"><tspan>2014 iMac</tspan></text><rect width="12" height="12" x="2" y="4" fill="#D14648" rx="6" ry="6" class="highcharts-point"/></g><g class="highcharts-legend-item highcharts-column-series highcharts-color-1 highcharts-series-1" transform="translate(112.844 3)"><text x="21" y="15" fill="#333" color="#333" font-size="12" font-weight="bold" cursor="pointer"><tspan>2016 MBP</tspan></text><rect width="12" height="12" x="2" y="4" fill="#323232" rx="6" ry="6" class="highcharts-point"/></g><g class="highcharts-legend-item highcharts-column-series highcharts-color-2 highcharts-series-2" transform="translate(215.266 3)"><text x="21" y="15" fill="#333" color="#333" font-size="12" font-weight="bold" cursor="pointer"><tspan>2013 MBP</tspan></text><rect width="12" height="12" x="2" y="4" fill="#bdbdbd" rx="6" ry="6" class="highcharts-point"/></g></g><g fill="#666" class="highcharts-axis-labels highcharts-yaxis-labels" text-anchor="middle" color="#666" cursor="default" font-size="11"><text x="20" y="234">0</text><text x="103.75" y="234">10</text><text x="187.5" y="234">20</text><text x="271.25" y="234">30</text><text x="355" y="234">40</text><text x="438.75" y="234">50</text><text x="522.5" y="234">60</text><text x="606.25" y="234">70</text><text x="683.047" y="234">80</text></g></svg>